# AST/ASF file generated using VICON BodyLanguage
# -----------------------------------------------
:version 1.10
:name VICON
:units
  mass 1.0
  length 0.45
  angle deg
:documentation
   .ast/.asf automatically generated from VICON data using
   VICON BodyBuilder and BodyLanguage model FoxedUp or BRILLIANT.MOD
:root
   order TX TY TZ RX RY RZ
   axis XYZ
   position 0 0 0  
   orientation 0 0 0 
:bonedata
  begin
     id 1 
     name lhipjoint
     direction 0.573633 -0.743009 0.344793 
     length 2.46257 
     axis 0 0 0  XYZ
  end
  begin
     id 2 
     name lfemur
     direction 0.34202 -0.939693 0  
     length 7.3842  
     axis 0 0 20  XYZ
    dof rx ry rz
    limits (-160.0 20.0)
           (-70.0 70.0)
           (-60.0 70.0)
  end
  begin
     id 3 
     name ltibia
     direction 0.34202 -0.939693 0   
     length 7.50407   
     axis 0 0 20   XYZ
    dof rx
    limits (-10.0 170.0)
  end
  begin
     id 4 
     name lfoot
     direction 0.110749 -0.304281 0.946123   
     length 1.95925   
     axis -90 7.62852e-016 20   XYZ
    dof rx rz
    limits (-45.0 90.0)
           (-70.0 20.0)
  end
  begin
     id 5 
     name ltoes
     direction 1.53554e-011 -4.21843e-011 1   
     length 0.978318   
     axis -90 7.62852e-016 20   XYZ
    dof rx
    limits (-90.0 20.0)
  end
  begin
     id 6 
     name rhipjoint
     direction -0.488109 -0.791693 0.367385   
     length 2.31113  
     axis 0 0 0  XYZ 
  end
  begin
     id 7 
     name rfemur
     direction -0.34202 -0.939693 0   
     length 7.40965   
     axis 0 0 -20   XYZ
    dof rx ry rz
    limits (-160.0 20.0)
           (-70.0 70.0)
           (-70.0 60.0)
  end
  begin
     id 8 
     name rtibia
     direction -0.34202 -0.939693 0   
     length 7.55548   
     axis 0 0 -20   XYZ
    dof rx
    limits (-10.0 170.0)
 end
 begin
     id 9 
     name rfoot
     direction -0.127594 -0.350561 0.927808   
     length 2.07199  
     axis -90 -7.62852e-016 -20   XYZ
    dof rx rz
    limits (-45.0 90.0)
           (-20.0 70.0)
  end
  begin
     id 10 
     name rtoes
     direction -1.53542e-011 -4.21909e-011 1   
     length 1.02667   
     axis -90 -7.62852e-016 -20   XYZ
    dof rx
    limits (-90.0 20.0)
  end
  begin
     id 11 
     name lowerback
     direction -0.0103342 0.997298 -0.0727278   
     length 2.02836   
     axis 0 0 0   XYZ
    dof rx ry rz
    limits (-20.0 45.0)
           (-30.0 30.0)
           (-30.0 30.0)
  end
  begin
     id 12 
     name upperback
     direction 0.0171146 0.999786 -0.011606   
     length 2.03179   
     axis 0 0 0   XYZ
    dof rx ry rz
    limits (-20.0 45.0)
           (-30.0 30.0)
           (-30.0 30.0)
  end
  begin
     id 13 
     name thorax
     direction 0.0216927 0.999513 0.0224343   
     length 2.03882   
     axis 0 0 0   XYZ
    dof rx ry rz
    limits (-20.0 45.0)
           (-30.0 30.0)
           (-30.0 30.0)
  end
  begin
     id 14 
     name lowerneck
     direction 0.000989287 0.993907 0.110221   
     length 1.75428   
     axis 0 0 0   XYZ
    dof rx ry rz
    limits (-20.0 45.0)
           (-30.0 30.0)
           (-30.0 30.0)
  end
  begin
     id 15 
     name upperneck
     direction -0.0172474 0.994813 -0.100253   
     length 1.77058   
     axis 0 0 0   XYZ
    dof rx ry rz
    limits (-20.0 45.0)
           (-30.0 30.0)
           (-30.0 30.0)
  end
  begin
     id 16
     name head
     direction -0.00486455 0.99894 -0.0457663  
     length 1.77427  
     axis 0 0 0   XYZ
    dof rx ry rz
    limits (-20.0 45.0)
           (-30.0 30.0)
           (-30.0 30.0)
  end
  begin
     id 17 
     name lclavicle
     direction 0.927314 0.333734 -0.169441  
     length 3.97584  
     axis 0 0 0   XYZ
    dof ry rz
    limits (-20.0 10.0)
           (0.0 20.0)
  end
  begin
     id 18 
     name lhumerus
     direction 1 -4.48965e-011 -3.25313e-028   
     length 4.76468   
     axis 180 -30 -90   XYZ
    dof rx ry rz
    limits (-60.0 90.0)
           (-90.0 90.0)
           (-90.0 90.0)
  end
  begin
     id 19
     name lradius
     direction 1 -4.48969e-011 -2.8465e-028   
     length 3.52712   
     axis -180 -30 -90   XYZ
    dof rx
    limits (-10.0 170.0)
  end
  begin
     id 20
     name lwrist
     direction 1 -4.4896e-011 -7.78665e-028   
     length 1.76356   
     axis 1.91374e-015 90 90   XYZ
    dof ry
    limits (-180.0 0.0)
 end
  begin
     id 21 
     name lhand
     direction 1 -4.48959e-011 -1.55733e-027   
     length 0.859564   
     axis 9.9371e-016 90 90   XYZ
    dof rx rz
    limits (-90.0 90.0)
           (-45.0 45.0)
  end
  begin
     id 22 
     name lfingers
     direction 1 -4.48965e-011 -3.11466e-027   
     length 0.693002   
     axis 1.98742e-015 90 90   XYZ
    dof rx
    limits (0.0 90.0)
  end
  begin
     id 23
     name lthumb
     direction 0.707107 -6.34948e-011 0.707107   
     length 0.995017   
     axis -90 45 2.85299e-015   XYZ
    dof rx rz
    limits (-45.0 45.0)
           (-45.0 45.0)
  end
  begin
     id 24 
     name rclavicle
     direction -0.899388 0.348209 -0.264294   
     length 3.68366  
     axis 0 0 0   XYZ 
    dof ry rz
    limits (-10.0 20.0)
           (-20.0 0.0)
  end
  begin
     id 25 
     name rhumerus
     direction -1 -4.48965e-011 -3.01536e-027  
     length 4.90577   
     axis 180 30 90   XYZ
    dof rx ry rz
    limits (-90.0 60.0)
           (-90.0 90.0)
           (-90.0 90.0)
  end
  begin
     id 26 
     name rradius
     direction -1 -4.48966e-011 3.93291e-027   
     length 3.42692   
     axis -180 30 90   XYZ
    dof rx
    limits (-10.0 170.0)
  end
  begin
     id 27 
     name rwrist
     direction -1 -4.48969e-011 -7.78665e-028   
     length 1.71346   
     axis 1.91374e-015 -90 -90   XYZ
    dof ry
    limits (-180.0 0.0)
  end
  begin
     id 28
     name rhand
     direction -1 -4.48967e-011 -1.55733e-027   
     length 0.740957   
     axis 9.9371e-016 -90 -90   XYZ
    dof rx rz
    limits (-90.0 90.0)
           (-45.0 45.0)
  end
  begin
     id 29
     name rfingers
     direction -1 -4.48949e-011 -3.11466e-027   
     length 0.597378   
     axis 1.98742e-015 -90 -90   XYZ
    dof rx
    limits (0.0 90.0)
  end
  begin
     id 30
     name rthumb
     direction -0.707107 -6.34931e-011 0.707107   
     length 0.857719   
     axis -90 -45 -2.85299e-015   XYZ
    dof rx rz
    limits (-45.0 45.0)
           (-45.0 45.0)
  end
:hierarchy
  begin
    root lhipjoint rhipjoint lowerback
    lhipjoint lfemur
    lfemur ltibia
    ltibia lfoot
    lfoot ltoes
    rhipjoint rfemur
    rfemur rtibia
    rtibia rfoot
    rfoot rtoes
    lowerback upperback
    upperback thorax
    thorax lowerneck lclavicle rclavicle
    lowerneck upperneck
    upperneck head
    lclavicle lhumerus
    lhumerus lradius
    lradius lwrist
    lwrist lhand lthumb
    lhand lfingers
    rclavicle rhumerus
    rhumerus rradius
    rradius rwrist
    rwrist rhand rthumb
    rhand rfingers
  end

#!OML:ASF E:\I on waltz\AllaLogoMonkeySwing\Project 1\Capture day 1\Session 1\Subject1.ASF
:FULLY-SPECIFIED
:DEGREES
224
root 17.9278 17.2538 26.5659 -7.93817 72.005 -7.76805
lowerback 11.1988 6.26834 4.41561
upperback 1.51227 8.8787 -0.350639
thorax -3.91429 4.35289 -4.03687
lowerneck -3.09087 15.4874 9.13469
upperneck 23.6085 25.0788 -11.7896
head 10.8086 11.787 -2.49189
rclavicle -5.27276e-014 -1.03741e-014
rhumerus -25.6009 -27.3003 -76.8455
rradius 18.7548
rwrist 11.1193
rhand -9.57141 -40.0818
rfingers 7.12502
rthumb 16.3963 -69.4088
lclavicle -5.27276e-014 -1.03741e-014
lhumerus -45.697 20.959 74.2898
lradius 43.1198
lwrist -2.7937
lhand -5.9831 -12.8632
lfingers 7.12502
lthumb 19.8486 16.1432
rfemur -10.4231 -8.6934 26.6123
rtibia 31.2411
rfoot -18.7309 -15.2105
rtoes 6.46705
lfemur -14.7906 -23.497 -6.22178
ltibia 47.9281
lfoot 10.1879 -35.0451
ltoes -11.4071
225
root 17.9058 17.2636 26.5786 -6.90564 72.604 -6.68494
lowerback 11.1368 6.37052 4.15383
upperback 1.53773 8.96686 -0.653031
thorax -3.83557 4.40366 -4.20632
lowerneck -3.1706 15.549 9.1308
upperneck 25.0596 25.6485 -11.7802
head 11.4521 12.0071 -2.34501
rclavicle -5.30786e-014 1.69215e-014
rhumerus -24.7406 -24.8585 -77.9447
rradius 20.079
rwrist 8.6757
rhand -10.2048 -39.8379
rfingers 7.12502
rthumb 15.7865 -69.2142
lclavicle -5.30786e-014 1.69215e-014
lhumerus -45.3363 21.6404 73.3036
lradius 40.81
lwrist -3.03494
lhand -6.35839 -13.9194
lfingers 7.12502
lthumb 19.4878 15.124
rfemur -10.4861 -8.86348 26.2427
rtibia 31.2413
rfoot -18.7794 -15.3456
rtoes 7.04575
lfemur -14.7511 -23.2214 -6.37803
ltibia 47.4367
lfoot 10.2515 -35.4184
ltoes -11.092
226
root 17.8764 17.2715 26.5866 -4.68333 73.216 -4.44995
lowerback 11.0624 6.5119 3.58263
upperback 1.52905 9.06659 -1.07852
thorax -3.81205 4.46158 -4.33908
lowerneck -3.18908 15.4434 9.19755
upperneck 26.5778 26.1031 -11.9558
head 12.1609 12.1671 -2.29004
rclavicle -4.48632e-014 -9.93923e-016
rhumerus -23.9949 -23.0345 -78.7739
rradius 21.327
rwrist 6.66913
rhand -10.5026 -39.7003
rfingers 7.12502
rthumb 15.4996 -69.099
lclavicle -4.48632e-014 -9.93923e-016
lhumerus -45.2232 22.6457 72.1094
lradius 38.8602
lwrist -3.23781
lhand -6.48632 -13.5921
lfingers 7.12502
lthumb 19.3648 15.4637
rfemur -10.6899 -8.93839 25.5345
rtibia 31.2638
rfoot -18.5882 -15.4842
rtoes 7.2113
lfemur -14.7846 -22.9404 -6.87312
ltibia 46.891
lfoot 10.1954 -35.7353
ltoes -10.4615
227
root 17.8437 17.2725 26.5832 -4.11342 73.8583 -3.75052
lowerback 11.2596 6.58152 3.57887
upperback 1.49863 9.15391 -1.40344
thorax -3.89046 4.5024 -4.71044
lowerneck -3.07271 15.374 9.18453
upperneck 27.9489 26.4725 -11.7563
head 12.7188 12.3266 -2.13209
rclavicle 4.1869e-014 5.36719e-015
rhumerus -23.4775 -21.711 -79.3849
rradius 22.5981
rwrist 5.00062
rhand -10.8022 -39.6906
rfingers 7.12502
rthumb 15.2111 -69.1114
lclavicle 4.1869e-014 5.36719e-015
lhumerus -44.8224 24.0484 70.7946
lradius 36.8427
lwrist -3.39963
lhand -7.23683 -12.5884
lfingers 7.12502
lthumb 18.643 16.5382
rfemur -10.7293 -9.13704 25.2797
rtibia 31.3165
rfoot -18.332 -15.5872
rtoes 7.40674
lfemur -14.5984 -22.6537 -6.9453
ltibia 46.2968
lfoot 10.1098 -36.0306
ltoes -9.49068
228
root 17.8117 17.2701 26.5685 -6.06894 74.3315 -5.4557
lowerback 11.5909 6.57977 4.36901
upperback 1.5739 9.25706 -1.56805
thorax -3.83038 4.54921 -5.35406
lowerneck -2.95931 15.2548 9.28925
upperneck 29.1364 26.836 -11.8561
head 13.2917 12.4708 -2.09227
rclavicle 1.68967e-014 5.76476e-015
rhumerus -22.9535 -20.7981 -79.9036
rradius 23.9085
rwrist 3.53806
rhand -10.8544 -39.7053
rfingers 7.12502
rthumb 15.1608 -69.13
lclavicle 1.68967e-014 5.76476e-015
lhumerus -45.5488 25.226 69.4711
lradius 36.4728
lwrist -3.33534
lhand -7.97492 -12.131
lfingers 7.12502
lthumb 17.933 17.0622
rfemur -10.5596 -9.08977 25.7524
rtibia 31.4023
rfoot -18.2361 -15.8392
rtoes 7.54023
lfemur -14.1021 -22.2711 -6.36186
ltibia 45.6818
lfoot 9.52732 -36.3962
ltoes -9.21819
229
root 17.7901 17.2781 26.5566 -5.52524 74.5911 -5.07269
lowerback 11.1694 6.72001 4.44318
upperback 1.63126 9.42517 -1.9129
thorax -3.448 4.65208 -5.70053
lowerneck -2.88322 15.138 9.30862
upperneck 30.0905 27.1607 -11.993
head 13.7772 12.5882 -2.06454
rclavicle -1.66482e-014 -3.97569e-016
rhumerus -22.4498 -20.1705 -80.3716
rradius 25.2662
rwrist 1.99038
rhand -10.9145 -39.7904
rfingers 7.12502
rthumb 15.1028 -69.2194
lclavicle -1.66482e-014 -3.97569e-016
lhumerus -46.5355 26.3068 68.1012
lradius 36.2778
lwrist -3.75857
lhand -8.93601 -12.3899
lfingers 7.12502
lthumb 17.008 16.8855
rfemur -10.9075 -8.95023 25.6462
rtibia 31.505
rfoot -18.16 -15.8
rtoes 7.78338
lfemur -13.9302 -21.8496 -6.3179
ltibia 45.0338
lfoot 8.26839 -36.5238
ltoes -10.2927
230
root 17.7496 17.2817 26.5417 -4.31403 75.1729 -3.80974
lowerback 11.1606 6.74718 4.15961
upperback 1.67507 9.41791 -2.29831
thorax -3.37715 4.6592 -5.94062
lowerneck -2.75318 15.0444 9.22156
upperneck 30.8502 27.4033 -11.9677
head 14.114 12.6821 -1.99425
rclavicle -1.69762e-013 3.49861e-014
rhumerus -22.1125 -19.7284 -80.7726
rradius 26.6569
rwrist 0.35863
rhand -10.949 -39.9479
rfingers 7.12502
rthumb 15.0697 -69.3794
lclavicle -1.69762e-013 3.49861e-014
lhumerus -47.2571 27.3185 66.779
lradius 36.0849
lwrist -4.06447
lhand -9.23113 -10.974
lfingers 7.12502
lthumb 16.7239 18.3256
rfemur -11.124 -8.9954 25.2351
rtibia 31.6416
rfoot -18.1237 -15.8671
rtoes 7.9309
lfemur -13.6842 -21.7265 -6.56948
ltibia 44.3715
lfoot 6.82611 -36.605
ltoes -11.9863
231
root 17.6982 17.2812 26.5144 -3.94584 75.8393 -3.22159
lowerback 11.4402 6.6815 4.05817
upperback 1.76852 9.32356 -2.57987
thorax -3.41189 4.61819 -6.2009
lowerneck -2.65419 14.9551 8.93692
upperneck 31.4117 27.5671 -11.8851
head 14.3153 12.7304 -1.89766
rclavicle 5.58585e-014 -5.1684e-015
rhumerus -21.7957 -19.2031 -81.087
rradius 27.9553
rwrist -1.13975
rhand -10.8652 -40.094
rfingers 7.12502
rthumb 15.1504 -69.5194
lclavicle 5.58585e-014 -5.1684e-015
lhumerus -47.9114 28.6064 65.3338
lradius 35.859
lwrist -4.51748
lhand -10.5697 -13.1884
lfingers 7.12502
lthumb 15.435 16.2153
rfemur -11.2191 -9.11006 24.9726
rtibia 31.8758
rfoot -18.1153 -16.0338
rtoes 7.76375
lfemur -13.2711 -21.7474 -6.6721
ltibia 43.695
lfoot 4.70183 -36.4728
ltoes -14.84
232
root 17.6491 17.2852 26.4763 -3.46762 76.4124 -2.69353
lowerback 11.4941 6.70956 4.07947
upperback 1.8468 9.36068 -2.92895
thorax -3.29071 4.64896 -6.57954
lowerneck -2.64852 14.7992 8.7011
upperneck 31.7951 27.5161 -11.7716
head 14.4232 12.69 -1.83352
rclavicle -1.04362e-014 -8.74653e-015
rhumerus -21.5505 -18.7371 -81.364
rradius 29.1839
rwrist -2.53586
rhand -10.8955 -40.2307
rfingers 7.12502
rthumb 15.1212 -69.6583
lclavicle -1.04362e-014 -8.74653e-015
lhumerus -48.3179 29.7744 63.8468
lradius 35.3013
lwrist -4.46931
lhand -9.63985 -14.1049
lfingers 7.12502
lthumb 16.3304 15.2275
rfemur -11.5364 -9.31149 24.7189
rtibia 32.1593
rfoot -18.0269 -16.0784
rtoes 7.59865
lfemur -12.9502 -21.837 -6.74293
ltibia 43.0509
lfoot 1.27668 -35.6498
ltoes -19.965
233
root 17.603 17.2895 26.4311 -2.6003 76.8205 -1.83313
lowerback 11.4206 6.73829 4.00675
upperback 1.94109 9.38546 -3.28613
thorax -3.09786 4.67892 -6.89503
lowerneck -2.69434 14.7531 8.36851
upperneck 31.9624 27.5249 -11.621
head 14.4257 12.667 -1.73215
rclavicle -1.5207e-014 1.59028e-015
rhumerus -21.2246 -17.97 -81.7123
rradius 30.2646
rwrist -3.85565
rhand -11.007 -40.3549
rfingers 7.12502
rthumb 15.0138 -69.7906
lclavicle -1.5207e-014 1.59028e-015
lhumerus -48.4282 30.4174 63.0236
lradius 34.8565
lwrist -4.32045
lhand -8.44416 -10.2881
lfingers 7.12502
lthumb 17.4814 18.9459
rfemur -11.9237 -9.59143 24.3639
rtibia 32.4476
rfoot -17.8837 -15.9287
rtoes 7.38626
lfemur -12.5236 -21.8223 -6.97039
ltibia 42.4522
lfoot -3.36887 -33.664
ltoes -26.8044
